<svg xmlns="http://www.w3.org/2000/svg" viewBox="0 0 32 32" width="32" height="32">
  <defs>
    <!-- Gradients for 3D puzzle piece effect -->
    <linearGradient id="puzzleGradient" x1="0%" y1="0%" x2="100%" y2="100%">
      <stop offset="0%" style="stop-color:#10B981;stop-opacity:1" />
      <stop offset="50%" style="stop-color:#059669;stop-opacity:1" />
      <stop offset="100%" style="stop-color:#064E3B;stop-opacity:1" />
    </linearGradient>
    
    <linearGradient id="shadowGradient" x1="0%" y1="0%" x2="100%" y2="100%">
      <stop offset="0%" style="stop-color:#064E3B;stop-opacity:0.8" />
      <stop offset="100%" style="stop-color:#022C22;stop-opacity:1" />
    </linearGradient>
    
    <radialGradient id="highlightGradient" cx="25%" cy="25%" r="80%">
      <stop offset="0%" style="stop-color:#FFFFFF;stop-opacity:0.6" />
      <stop offset="70%" style="stop-color:#FFFFFF;stop-opacity:0.2" />
      <stop offset="100%" style="stop-color:#FFFFFF;stop-opacity:0" />
    </radialGradient>

    <!-- Quiz answer dots gradient -->
    <linearGradient id="dotGradient" x1="0%" y1="0%" x2="100%" y2="100%">
      <stop offset="0%" style="stop-color:#F59E0B;stop-opacity:1" />
      <stop offset="100%" style="stop-color:#D97706;stop-opacity:1" />
    </linearGradient>

    <!-- Question mark gradient -->
    <linearGradient id="questionGradient" x1="0%" y1="0%" x2="100%" y2="100%">
      <stop offset="0%" style="stop-color:#FFFFFF;stop-opacity:1" />
      <stop offset="100%" style="stop-color:#E5E7EB;stop-opacity:1" />
    </linearGradient>

    <!-- Glow and shadow effects -->
    <filter id="glow">
      <feGaussianBlur stdDeviation="1" result="coloredBlur"/>
      <feMerge> 
        <feMergeNode in="coloredBlur"/>
        <feMergeNode in="SourceGraphic"/>
      </feMerge>
    </filter>

    <filter id="softShadow">
      <feDropShadow dx="1" dy="2" stdDeviation="1" flood-color="#022C22" flood-opacity="0.6"/>
    </filter>
  </defs>

  <!-- Puzzle piece shadow -->
  <path d="M6,19 L6,10 Q6,8 8,8 L12,8 Q12,6 14,6 Q16,6 16,8 Q16,10 14,10 L12,10 L12,14 Q14,14 16,14 Q18,14 18,16 Q18,18 16,18 Q14,18 14,16 L12,16 L12,20 Q12,22 14,22 Q16,22 16,24 Q16,26 14,26 Q12,26 12,24 L8,24 Q6,24 6,22 Z" 
        fill="url(#shadowGradient)" transform="translate(1,1)" opacity="0.7"/>

  <!-- Main puzzle piece -->
  <path d="M6,18 L6,9 Q6,7 8,7 L12,7 Q12,5 14,5 Q16,5 16,7 Q16,9 14,9 L12,9 L12,13 Q14,13 16,13 Q18,13 18,15 Q18,17 16,17 Q14,17 14,15 L12,15 L12,19 Q12,21 14,21 Q16,21 16,23 Q16,25 14,25 Q12,25 12,23 L8,23 Q6,23 6,21 Z" 
        fill="url(#puzzleGradient)" filter="url(#softShadow)"/>

  <!-- 3D highlight on puzzle piece -->
  <path d="M6,18 L6,9 Q6,7 8,7 L12,7 Q12,5 14,5 Q16,5 16,7 Q16,9 14,9 L12,9 L12,13 Q14,13 16,13 Q18,13 18,15 Q18,17 16,17 Q14,17 14,15 L12,15 L12,19 Q12,21 14,21 Q16,21 16,23 Q16,25 14,25 Q12,25 12,23 L8,23 Q6,23 6,21 Z" 
        fill="url(#highlightGradient)"/>

  <!-- Question mark inside puzzle piece -->
  <g transform="translate(11,15)">
    <!-- Question mark shadow -->
    <path d="M0,1 Q0,-2 2,-2 Q4,-2 4,0 Q4,1 3,2 L2,3 L2,4 M2,6 L2,7" 
          stroke="#022C22" stroke-width="1" fill="none" stroke-linecap="round" opacity="0.4"/>
    
    <!-- Main question mark -->
    <path d="M0,0 Q0,-3 2,-3 Q5,-3 5,-1 Q5,0 4,1 L3,2 L3,3 M3,5 L3,6" 
          stroke="url(#questionGradient)" stroke-width="1.8" fill="none" stroke-linecap="round"/>
  </g>

  <!-- Multiple choice dots (A, B, C, D concept) -->
  <g opacity="0.9">
    <!-- Dot shadows -->
    <circle cx="21" cy="8" r="1.5" fill="#D97706" opacity="0.6"/>
    <circle cx="25" cy="8" r="1.5" fill="#D97706" opacity="0.6"/>
    <circle cx="21" cy="12" r="1.5" fill="#D97706" opacity="0.6"/>
    <circle cx="25" cy="12" r="1.5" fill="#D97706" opacity="0.6"/>
    
    <!-- Main dots -->
    <circle cx="20" cy="7" r="1.5" fill="url(#dotGradient)" filter="url(#glow)"/>
    <circle cx="24" cy="7" r="1.5" fill="url(#dotGradient)" filter="url(#glow)"/>
    <circle cx="20" cy="11" r="1.5" fill="url(#dotGradient)" filter="url(#glow)"/>
    <circle cx="24" cy="11" r="1.5" fill="url(#dotGradient)" filter="url(#glow)"/>
  </g>

  <!-- Interactive animations -->
  <style>
    <![CDATA[
      svg:hover path:nth-of-type(2) {
        animation: puzzlePop 0.6s ease-in-out;
        filter: url(#glow) url(#softShadow);
      }
      
      svg:hover g:first-of-type path:last-child {
        animation: questionBounce 0.5s ease-out;
      }
      
      svg:hover g:last-of-type circle {
        animation: dotPulse 0.4s ease-in-out infinite alternate;
      }
      
      @keyframes puzzlePop {
        0% { transform: scale(1) rotate(0deg); }
        50% { transform: scale(1.05) rotate(2deg); }
        100% { transform: scale(1) rotate(0deg); }
      }
      
      @keyframes questionBounce {
        0%, 100% { transform: scale(1); }
        50% { transform: scale(1.2); }
      }
      
      @keyframes dotPulse {
        0% { opacity: 0.9; transform: scale(1); }
        100% { opacity: 1; transform: scale(1.1); }
      }
    ]]>
  </style>
</svg>